<?xml version="1.0" standalone="no"?>
<svg xmlns:xlink="http://www.w3.org/1999/xlink" id="wave" style="transform:rotate(180deg); transition: 0.3s" viewBox="0 0 1440 200" version="1.1" xmlns="http://www.w3.org/2000/svg"><defs><linearGradient id="sw-gradient-0" x1="0" x2="0" y1="1" y2="0"><stop stop-color="rgba(255, 249, 234, 1)" offset="0%"/><stop stop-color="rgba(255, 249, 234, 1)" offset="100%"/></linearGradient></defs><path style="transform:translate(0, 0px); opacity:1" fill="url(#sw-gradient-0)" d="M0,100L17.1,113.3C34.3,127,69,153,103,163.3C137.1,173,171,167,206,146.7C240,127,274,93,309,83.3C342.9,73,377,87,411,83.3C445.7,80,480,60,514,56.7C548.6,53,583,67,617,63.3C651.4,60,686,40,720,26.7C754.3,13,789,7,823,16.7C857.1,27,891,53,926,76.7C960,100,994,120,1029,136.7C1062.9,153,1097,167,1131,156.7C1165.7,147,1200,113,1234,106.7C1268.6,100,1303,120,1337,116.7C1371.4,113,1406,87,1440,86.7C1474.3,87,1509,113,1543,103.3C1577.1,93,1611,47,1646,26.7C1680,7,1714,13,1749,40C1782.9,67,1817,113,1851,116.7C1885.7,120,1920,80,1954,70C1988.6,60,2023,80,2057,90C2091.4,100,2126,100,2160,86.7C2194.3,73,2229,47,2263,53.3C2297.1,60,2331,100,2366,100C2400,100,2434,60,2451,40L2468.6,20L2468.6,200L2451.4,200C2434.3,200,2400,200,2366,200C2331.4,200,2297,200,2263,200C2228.6,200,2194,200,2160,200C2125.7,200,2091,200,2057,200C2022.9,200,1989,200,1954,200C1920,200,1886,200,1851,200C1817.1,200,1783,200,1749,200C1714.3,200,1680,200,1646,200C1611.4,200,1577,200,1543,200C1508.6,200,1474,200,1440,200C1405.7,200,1371,200,1337,200C1302.9,200,1269,200,1234,200C1200,200,1166,200,1131,200C1097.1,200,1063,200,1029,200C994.3,200,960,200,926,200C891.4,200,857,200,823,200C788.6,200,754,200,720,200C685.7,200,651,200,617,200C582.9,200,549,200,514,200C480,200,446,200,411,200C377.1,200,343,200,309,200C274.3,200,240,200,206,200C171.4,200,137,200,103,200C68.6,200,34,200,17,200L0,200Z"/></svg>